<svg data-v-423bf9ae="" xmlns="http://www.w3.org/2000/svg" viewBox="0 0 894.9111545186527 255" class="iconAboveSlogan"><g data-v-423bf9ae="" id="d4d04d7b-f1a9-4a99-a291-1a908cd5c74a" transform="matrix(1.1027895609537761,0,0,1.1027895609537761,392.70124397123436,0.27348329131199733)" stroke="none" fill="white"><path d="M59.377 9.913V0H42.584v35.994h16.793v-9.012C70.544 30.92 78.549 41.56 78.549 54.075a28.578 28.578 0 0 1-5.755 17.244l11.707 11.709A44.993 44.993 0 0 0 95 54.075c0-21.674-15.262-39.778-35.623-44.162z"></path><path d="M65.987 77.821A28.595 28.595 0 0 1 49.822 82.8c-15.865 0-28.726-12.86-28.726-28.725 0-9.658 4.771-18.196 12.08-23.402V12.075c-16.711 6.628-28.531 22.929-28.531 42 0 24.95 20.226 45.176 45.177 45.176a44.981 44.981 0 0 0 27.931-9.667L65.987 77.821z"></path></g></svg>