<svg data-v-423bf9ae="" xmlns="http://www.w3.org/2000/svg" viewBox="0 0 894.9111545186527 255" class="iconAboveSlogan"><!----><!----><!----><g data-v-423bf9ae="" id="d3241f15-d2ee-4543-834d-c8dff85afdc2" fill="white" transform="matrix(5.917159562968884,0,0,5.917159562968884,-2.7218957481521215,103.9914939037821)"><path d="M3.46 12.08L3.46 12.08L3.46 12.08Q5.59 12.08 5.59 10.63L5.59 10.63L5.59 10.63Q5.59 10.18 5.40 9.86L5.40 9.86L5.40 9.86Q5.21 9.55 4.89 9.32L4.89 9.32L4.89 9.32Q4.56 9.09 4.15 8.92L4.15 8.92L4.15 8.92Q3.74 8.75 3.28 8.58L3.28 8.58L3.28 8.58Q2.74 8.40 2.27 8.17L2.27 8.17L2.27 8.17Q1.79 7.94 1.44 7.62L1.44 7.62L1.44 7.62Q1.09 7.31 0.89 6.87L0.89 6.87L0.89 6.87Q0.69 6.44 0.69 5.82L0.69 5.82L0.69 5.82Q0.69 4.55 1.55 3.84L1.55 3.84L1.55 3.84Q2.42 3.12 3.95 3.12L3.95 3.12L3.95 3.12Q4.83 3.12 5.55 3.31L5.55 3.31L5.55 3.31Q6.27 3.50 6.61 3.72L6.61 3.72L6.17 4.83L6.17 4.83Q5.88 4.65 5.30 4.47L5.30 4.47L5.30 4.47Q4.72 4.30 3.95 4.30L3.95 4.30L3.95 4.30Q3.56 4.30 3.22 4.38L3.22 4.38L3.22 4.38Q2.88 4.47 2.63 4.63L2.63 4.63L2.63 4.63Q2.38 4.80 2.23 5.06L2.23 5.06L2.23 5.06Q2.09 5.32 2.09 5.67L2.09 5.67L2.09 5.67Q2.09 6.06 2.24 6.33L2.24 6.33L2.24 6.33Q2.39 6.59 2.67 6.80L2.67 6.80L2.67 6.80Q2.95 7 3.33 7.17L3.33 7.17L3.33 7.17Q3.70 7.34 4.14 7.50L4.14 7.50L4.14 7.50Q4.77 7.76 5.30 8.01L5.30 8.01L5.30 8.01Q5.82 8.26 6.21 8.61L6.21 8.61L6.21 8.61Q6.59 8.96 6.80 9.44L6.80 9.44L6.80 9.44Q7.01 9.93 7.01 10.61L7.01 10.61L7.01 10.61Q7.01 11.89 6.08 12.57L6.08 12.57L6.08 12.57Q5.15 13.26 3.46 13.26L3.46 13.26L3.46 13.26Q2.88 13.26 2.40 13.18L2.40 13.18L2.40 13.18Q1.92 13.10 1.54 13.00L1.54 13.00L1.54 13.00Q1.16 12.89 0.89 12.78L0.89 12.78L0.89 12.78Q0.62 12.66 0.46 12.57L0.46 12.57L0.87 11.45L0.87 11.45Q1.19 11.63 1.85 11.86L1.85 11.86L1.85 11.86Q2.51 12.08 3.46 12.08ZM12.82 13.26L12.82 13.26L12.82 13.26Q11.80 13.26 10.96 12.92L10.96 12.92L10.96 12.92Q10.12 12.59 9.52 11.94L9.52 11.94L9.52 11.94Q8.92 11.30 8.59 10.35L8.59 10.35L8.59 10.35Q8.26 9.41 8.26 8.19L8.26 8.19L8.26 8.19Q8.26 6.97 8.63 6.03L8.63 6.03L8.63 6.03Q9.00 5.08 9.63 4.44L9.63 4.44L9.63 4.44Q10.26 3.79 11.10 3.46L11.10 3.46L11.10 3.46Q11.94 3.12 12.89 3.12L12.89 3.12L12.89 3.12Q13.50 3.12 13.98 3.21L13.98 3.21L13.98 3.21Q14.46 3.29 14.82 3.40L14.82 3.40L14.82 3.40Q15.18 3.51 15.40 3.63L15.40 3.63L15.40 3.63Q15.62 3.74 15.71 3.79L15.71 3.79L15.32 4.91L15.32 4.91Q15.19 4.83 14.95 4.73L14.95 4.73L14.95 4.73Q14.71 4.63 14.41 4.54L14.41 4.54L14.41 4.54Q14.11 4.44 13.76 4.38L13.76 4.38L13.76 4.38Q13.40 4.31 13.03 4.31L13.03 4.31L13.03 4.31Q12.26 4.31 11.65 4.58L11.65 4.58L11.65 4.58Q11.03 4.84 10.60 5.35L10.60 5.35L10.60 5.35Q10.16 5.85 9.93 6.57L9.93 6.57L9.93 6.57Q9.70 7.29 9.70 8.19L9.70 8.19L9.70 8.19Q9.70 9.06 9.91 9.77L9.91 9.77L9.91 9.77Q10.11 10.49 10.51 11.00L10.51 11.00L10.51 11.00Q10.92 11.51 11.53 11.79L11.53 11.79L11.53 11.79Q12.14 12.07 12.95 12.07L12.95 12.07L12.95 12.07Q13.89 12.07 14.50 11.87L14.50 11.87L14.50 11.87Q15.12 11.68 15.43 11.52L15.43 11.52L15.78 12.64L15.78 12.64Q15.68 12.71 15.43 12.82L15.43 12.82L15.43 12.82Q15.18 12.92 14.80 13.02L14.80 13.02L14.80 13.02Q14.42 13.12 13.92 13.19L13.92 13.19L13.92 13.19Q13.41 13.26 12.82 13.26ZM23.44 7.39L23.44 3.35L24.79 3.35L24.79 13.05L23.44 13.05L23.44 8.57L18.69 8.57L18.69 13.05L17.33 13.05L17.33 3.35L18.69 3.35L18.69 7.39L23.44 7.39ZM35.17 13.05L33.68 13.05L33.68 13.05Q33.45 12.42 33.24 11.81L33.24 11.81L33.24 11.81Q33.03 11.20 32.80 10.57L32.80 10.57L28.41 10.57L27.52 13.05L26.11 13.05L26.11 13.05Q26.67 11.51 27.16 10.20L27.16 10.20L27.16 10.20Q27.65 8.89 28.12 7.71L28.12 7.71L28.12 7.71Q28.59 6.54 29.05 5.47L29.05 5.47L29.05 5.47Q29.51 4.40 30.02 3.35L30.02 3.35L31.26 3.35L31.26 3.35Q31.77 4.40 32.23 5.47L32.23 5.47L32.23 5.47Q32.69 6.54 33.16 7.71L33.16 7.71L33.16 7.71Q33.63 8.89 34.12 10.20L34.12 10.20L34.12 10.20Q34.61 11.51 35.17 13.05L35.17 13.05ZM28.80 9.45L32.41 9.45L32.41 9.45Q31.96 8.23 31.52 7.09L31.52 7.09L31.52 7.09Q31.08 5.95 30.60 4.90L30.60 4.90L30.60 4.90Q30.11 5.95 29.67 7.09L29.67 7.09L29.67 7.09Q29.23 8.23 28.80 9.45L28.80 9.45ZM37.84 11.87L42.32 11.87L42.32 13.05L36.48 13.05L36.48 3.35L37.84 3.35L37.84 11.87ZM42.77 3.35L50.23 3.35L50.23 4.52L47.18 4.52L47.18 13.05L45.82 13.05L45.82 4.52L42.77 4.52L42.77 3.35ZM57.93 13.05L51.66 13.05L51.66 3.35L57.58 3.35L57.58 4.51L53.02 4.51L53.02 7.39L57.08 7.39L57.08 8.53L53.02 8.53L53.02 11.89L57.93 11.89L57.93 13.05ZM67.44 13.05L66.30 13.05L66.30 13.05Q66.00 12.53 65.60 11.89L65.60 11.89L65.60 11.89Q65.20 11.24 64.74 10.55L64.74 10.55L64.74 10.55Q64.27 9.86 63.78 9.14L63.78 9.14L63.78 9.14Q63.28 8.43 62.79 7.76L62.79 7.76L62.79 7.76Q62.30 7.10 61.84 6.51L61.84 6.51L61.84 6.51Q61.38 5.92 60.98 5.47L60.98 5.47L60.98 13.05L59.65 13.05L59.65 3.35L60.73 3.35L60.73 3.35Q61.39 4.05 62.14 4.98L62.14 4.98L62.14 4.98Q62.89 5.91 63.62 6.89L63.62 6.89L63.62 6.89Q64.36 7.88 65.01 8.83L65.01 8.83L65.01 8.83Q65.66 9.79 66.11 10.53L66.11 10.53L66.11 3.35L67.44 3.35L67.44 13.05ZM72.46 13.13L72.46 13.13L72.46 13.13Q72.17 13.13 71.83 13.12L71.83 13.12L71.83 13.12Q71.48 13.10 71.14 13.08L71.14 13.08L71.14 13.08Q70.80 13.05 70.46 13.01L70.46 13.01L70.46 13.01Q70.13 12.96 69.85 12.89L69.85 12.89L69.85 3.49L69.85 3.49Q70.13 3.42 70.46 3.37L70.46 3.37L70.46 3.37Q70.80 3.33 71.14 3.30L71.14 3.30L71.14 3.30Q71.48 3.28 71.82 3.26L71.82 3.26L71.82 3.26Q72.16 3.25 72.45 3.25L72.45 3.25L72.45 3.25Q73.29 3.25 74.02 3.37L74.02 3.37L74.02 3.37Q74.76 3.50 75.30 3.80L75.30 3.80L75.30 3.80Q75.84 4.10 76.15 4.59L76.15 4.59L76.15 4.59Q76.45 5.08 76.45 5.80L76.45 5.80L76.45 5.80Q76.45 6.59 76.08 7.10L76.08 7.10L76.08 7.10Q75.70 7.62 75.07 7.87L75.07 7.87L75.07 7.87Q75.92 8.12 76.43 8.67L76.43 8.67L76.43 8.67Q76.93 9.21 76.93 10.21L76.93 10.21L76.93 10.21Q76.93 11.66 75.86 12.40L75.86 12.40L75.86 12.40Q74.79 13.13 72.46 13.13ZM72.94 8.53L71.19 8.53L71.19 11.94L71.19 11.94Q71.34 11.96 71.55 11.97L71.55 11.97L71.55 11.97Q71.74 11.98 71.98 11.99L71.98 11.99L71.98 11.99Q72.23 12.00 72.55 12.00L72.55 12.00L72.55 12.00Q73.15 12.00 73.69 11.92L73.69 11.92L73.69 11.92Q74.23 11.84 74.63 11.65L74.63 11.65L74.63 11.65Q75.04 11.45 75.28 11.10L75.28 11.10L75.28 11.10Q75.53 10.75 75.53 10.22L75.53 10.22L75.53 10.22Q75.53 9.74 75.35 9.41L75.35 9.41L75.35 9.41Q75.17 9.09 74.82 8.89L74.82 8.89L74.82 8.89Q74.48 8.69 74.00 8.61L74.00 8.61L74.00 8.61Q73.53 8.53 72.94 8.53L72.94 8.53ZM71.19 4.44L71.19 7.43L72.62 7.43L72.62 7.43Q73.12 7.43 73.57 7.36L73.57 7.36L73.57 7.36Q74.02 7.29 74.35 7.11L74.35 7.11L74.35 7.11Q74.68 6.93 74.86 6.64L74.86 6.64L74.86 6.64Q75.05 6.34 75.05 5.89L75.05 5.89L75.05 5.89Q75.05 5.47 74.86 5.19L74.86 5.19L74.86 5.19Q74.66 4.90 74.32 4.72L74.32 4.72L74.32 4.72Q73.98 4.55 73.51 4.47L73.51 4.47L73.51 4.47Q73.05 4.38 72.53 4.38L72.53 4.38L72.53 4.38Q72.02 4.38 71.72 4.40L71.72 4.40L71.72 4.40Q71.43 4.41 71.19 4.44L71.19 4.44ZM83.59 8.99L83.59 8.99L83.59 8.99Q83.82 9.27 84.16 9.72L84.16 9.72L84.16 9.72Q84.50 10.18 84.87 10.73L84.87 10.73L84.87 10.73Q85.23 11.28 85.59 11.89L85.59 11.89L85.59 11.89Q85.95 12.49 86.20 13.05L86.20 13.05L84.71 13.05L84.71 13.05Q84.43 12.52 84.10 11.97L84.10 11.97L84.10 11.97Q83.78 11.42 83.44 10.93L83.44 10.93L83.44 10.93Q83.10 10.43 82.77 10.00L82.77 10.00L82.77 10.00Q82.45 9.56 82.18 9.24L82.18 9.24L82.18 9.24Q82.00 9.25 81.81 9.25L81.81 9.25L81.81 9.25Q81.62 9.25 81.42 9.25L81.42 9.25L80.21 9.25L80.21 13.05L78.85 13.05L78.85 3.49L78.85 3.49Q79.42 3.35 80.13 3.30L80.13 3.30L80.13 3.30Q80.84 3.25 81.42 3.25L81.42 3.25L81.42 3.25Q83.47 3.25 84.54 4.02L84.54 4.02L84.54 4.02Q85.61 4.79 85.61 6.31L85.61 6.31L85.61 6.31Q85.61 7.28 85.10 7.97L85.10 7.97L85.10 7.97Q84.59 8.65 83.59 8.99ZM81.54 4.44L81.54 4.44L81.54 4.44Q80.67 4.44 80.21 4.48L80.21 4.48L80.21 8.13L81.17 8.13L81.17 8.13Q81.87 8.13 82.43 8.06L82.43 8.06L82.43 8.06Q82.99 7.99 83.38 7.80L83.38 7.80L83.38 7.80Q83.76 7.60 83.97 7.25L83.97 7.25L83.97 7.25Q84.18 6.89 84.18 6.30L84.18 6.30L84.18 6.30Q84.18 5.75 83.97 5.39L83.97 5.39L83.97 5.39Q83.76 5.03 83.40 4.82L83.40 4.82L83.40 4.82Q83.05 4.61 82.56 4.52L82.56 4.52L82.56 4.52Q82.08 4.44 81.54 4.44ZM95.62 13.05L94.14 13.05L94.14 13.05Q93.90 12.42 93.69 11.81L93.69 11.81L93.69 11.81Q93.48 11.20 93.25 10.57L93.25 10.57L88.86 10.57L87.98 13.05L86.56 13.05L86.56 13.05Q87.12 11.51 87.61 10.20L87.61 10.20L87.61 10.20Q88.10 8.89 88.57 7.71L88.57 7.71L88.57 7.71Q89.04 6.54 89.50 5.47L89.50 5.47L89.50 5.47Q89.96 4.40 90.47 3.35L90.47 3.35L91.71 3.35L91.71 3.35Q92.22 4.40 92.68 5.47L92.68 5.47L92.68 5.47Q93.14 6.54 93.61 7.71L93.61 7.71L93.61 7.71Q94.08 8.89 94.57 10.20L94.57 10.20L94.57 10.20Q95.06 11.51 95.62 13.05L95.62 13.05ZM89.25 9.45L92.86 9.45L92.86 9.45Q92.41 8.23 91.97 7.09L91.97 7.09L91.97 7.09Q91.53 5.95 91.06 4.90L91.06 4.90L91.06 4.90Q90.57 5.95 90.12 7.09L90.12 7.09L90.12 7.09Q89.68 8.23 89.25 9.45L89.25 9.45ZM104.72 13.05L103.59 13.05L103.59 13.05Q103.28 12.53 102.88 11.89L102.88 11.89L102.88 11.89Q102.48 11.24 102.02 10.55L102.02 10.55L102.02 10.55Q101.56 9.86 101.06 9.14L101.06 9.14L101.06 9.14Q100.56 8.43 100.07 7.76L100.07 7.76L100.07 7.76Q99.58 7.10 99.12 6.51L99.12 6.51L99.12 6.51Q98.66 5.92 98.27 5.47L98.27 5.47L98.27 13.05L96.94 13.05L96.94 3.35L98.01 3.35L98.01 3.35Q98.67 4.05 99.42 4.98L99.42 4.98L99.42 4.98Q100.17 5.91 100.90 6.89L100.90 6.89L100.90 6.89Q101.64 7.88 102.29 8.83L102.29 8.83L102.29 8.83Q102.94 9.79 103.39 10.53L103.39 10.53L103.39 3.35L104.72 3.35L104.72 13.05ZM115.09 8.19L115.09 8.19L115.09 8.19Q115.09 9.45 114.70 10.38L114.70 10.38L114.70 10.38Q114.31 11.31 113.60 11.92L113.60 11.92L113.60 11.92Q112.88 12.53 111.89 12.83L111.89 12.83L111.89 12.83Q110.89 13.13 109.70 13.13L109.70 13.13L109.70 13.13Q109.12 13.13 108.41 13.08L108.41 13.08L108.41 13.08Q107.70 13.03 107.13 12.89L107.13 12.89L107.13 3.49L107.13 3.49Q107.70 3.35 108.41 3.30L108.41 3.30L108.41 3.30Q109.12 3.25 109.70 3.25L109.70 3.25L109.70 3.25Q110.89 3.25 111.89 3.55L111.89 3.55L111.89 3.55Q112.88 3.85 113.60 4.46L113.60 4.46L113.60 4.46Q114.31 5.07 114.70 6.00L114.70 6.00L114.70 6.00Q115.09 6.93 115.09 8.19ZM109.82 11.94L109.82 11.94L109.82 11.94Q111.75 11.94 112.70 10.96L112.70 10.96L112.70 10.96Q113.65 9.97 113.65 8.19L113.65 8.19L113.65 8.19Q113.65 6.41 112.70 5.42L112.70 5.42L112.70 5.42Q111.75 4.44 109.82 4.44L109.82 4.44L109.82 4.44Q109.24 4.44 108.93 4.45L108.93 4.45L108.93 4.45Q108.61 4.47 108.49 4.48L108.49 4.48L108.49 11.90L108.49 11.90Q108.61 11.91 108.93 11.93L108.93 11.93L108.93 11.93Q109.24 11.94 109.82 11.94ZM121.70 11.87L126.18 11.87L126.18 13.05L120.34 13.05L120.34 3.35L121.70 3.35L121.70 11.87ZM135.58 13.05L134.09 13.05L134.09 13.05Q133.85 12.42 133.64 11.81L133.64 11.81L133.64 11.81Q133.43 11.20 133.21 10.57L133.21 10.57L128.81 10.57L127.93 13.05L126.52 13.05L126.52 13.05Q127.08 11.51 127.57 10.20L127.57 10.20L127.57 10.20Q128.06 8.89 128.53 7.71L128.53 7.71L128.53 7.71Q129.00 6.54 129.46 5.47L129.46 5.47L129.46 5.47Q129.92 4.40 130.42 3.35L130.42 3.35L131.67 3.35L131.67 3.35Q132.17 4.40 132.64 5.47L132.64 5.47L132.64 5.47Q133.10 6.54 133.57 7.71L133.57 7.71L133.57 7.71Q134.04 8.89 134.53 10.20L134.53 10.20L134.53 10.20Q135.02 11.51 135.58 13.05L135.58 13.05ZM129.21 9.45L132.82 9.45L132.82 9.45Q132.37 8.23 131.93 7.09L131.93 7.09L131.93 7.09Q131.49 5.95 131.01 4.90L131.01 4.90L131.01 4.90Q130.52 5.95 130.08 7.09L130.08 7.09L130.08 7.09Q129.64 8.23 129.21 9.45L129.21 9.45ZM139.51 13.13L139.51 13.13L139.51 13.13Q139.22 13.13 138.87 13.12L138.87 13.12L138.87 13.12Q138.53 13.10 138.19 13.08L138.19 13.08L138.19 13.08Q137.84 13.05 137.51 13.01L137.51 13.01L137.51 13.01Q137.17 12.96 136.89 12.89L136.89 12.89L136.89 3.49L136.89 3.49Q137.17 3.42 137.51 3.37L137.51 3.37L137.51 3.37Q137.84 3.33 138.19 3.30L138.19 3.30L138.19 3.30Q138.53 3.28 138.87 3.26L138.87 3.26L138.87 3.26Q139.20 3.25 139.50 3.25L139.50 3.25L139.50 3.25Q140.34 3.25 141.07 3.37L141.07 3.37L141.07 3.37Q141.81 3.50 142.34 3.80L142.34 3.80L142.34 3.80Q142.88 4.10 143.19 4.59L143.19 4.59L143.19 4.59Q143.50 5.08 143.50 5.80L143.50 5.80L143.50 5.80Q143.50 6.59 143.12 7.10L143.12 7.10L143.12 7.10Q142.74 7.62 142.11 7.87L142.11 7.87L142.11 7.87Q142.97 8.12 143.47 8.67L143.47 8.67L143.47 8.67Q143.98 9.21 143.98 10.21L143.98 10.21L143.98 10.21Q143.98 11.66 142.91 12.40L142.91 12.40L142.91 12.40Q141.83 13.13 139.51 13.13ZM139.99 8.53L138.24 8.53L138.24 11.94L138.24 11.94Q138.39 11.96 138.60 11.97L138.60 11.97L138.60 11.97Q138.78 11.98 139.03 11.99L139.03 11.99L139.03 11.99Q139.27 12.00 139.59 12.00L139.59 12.00L139.59 12.00Q140.20 12.00 140.73 11.92L140.73 11.92L140.73 11.92Q141.27 11.84 141.68 11.65L141.68 11.65L141.68 11.65Q142.09 11.45 142.33 11.10L142.33 11.10L142.33 11.10Q142.58 10.75 142.58 10.22L142.58 10.22L142.58 10.22Q142.58 9.74 142.39 9.41L142.39 9.41L142.39 9.41Q142.21 9.09 141.87 8.89L141.87 8.89L141.87 8.89Q141.53 8.69 141.05 8.61L141.05 8.61L141.05 8.61Q140.57 8.53 139.99 8.53L139.99 8.53ZM138.24 4.44L138.24 7.43L139.66 7.43L139.66 7.43Q140.17 7.43 140.62 7.36L140.62 7.36L140.62 7.36Q141.06 7.29 141.39 7.11L141.39 7.11L141.39 7.11Q141.72 6.93 141.91 6.64L141.91 6.64L141.91 6.64Q142.10 6.34 142.10 5.89L142.10 5.89L142.10 5.89Q142.10 5.47 141.90 5.19L141.90 5.19L141.90 5.19Q141.71 4.90 141.36 4.72L141.36 4.72L141.36 4.72Q141.02 4.55 140.56 4.47L140.56 4.47L140.56 4.47Q140.10 4.38 139.58 4.38L139.58 4.38L139.58 4.38Q139.06 4.38 138.77 4.40L138.77 4.40L138.77 4.40Q138.47 4.41 138.24 4.44L138.24 4.44ZM148.15 12.08L148.15 12.08L148.15 12.08Q150.28 12.08 150.28 10.63L150.28 10.63L150.28 10.63Q150.28 10.18 150.09 9.86L150.09 9.86L150.09 9.86Q149.90 9.55 149.58 9.32L149.58 9.32L149.58 9.32Q149.25 9.09 148.84 8.92L148.84 8.92L148.84 8.92Q148.43 8.75 147.97 8.58L147.97 8.58L147.97 8.58Q147.43 8.40 146.96 8.17L146.96 8.17L146.96 8.17Q146.48 7.94 146.13 7.62L146.13 7.62L146.13 7.62Q145.78 7.31 145.58 6.87L145.58 6.87L145.58 6.87Q145.38 6.44 145.38 5.82L145.38 5.82L145.38 5.82Q145.38 4.55 146.24 3.84L146.24 3.84L146.24 3.84Q147.11 3.12 148.64 3.12L148.64 3.12L148.64 3.12Q149.52 3.12 150.24 3.31L150.24 3.31L150.24 3.31Q150.96 3.50 151.30 3.72L151.30 3.72L150.86 4.83L150.86 4.83Q150.57 4.65 149.99 4.47L149.99 4.47L149.99 4.47Q149.41 4.30 148.64 4.30L148.64 4.30L148.64 4.30Q148.25 4.30 147.91 4.38L147.91 4.38L147.91 4.38Q147.57 4.47 147.32 4.63L147.32 4.63L147.32 4.63Q147.07 4.80 146.92 5.06L146.92 5.06L146.92 5.06Q146.78 5.32 146.78 5.67L146.78 5.67L146.78 5.67Q146.78 6.06 146.93 6.33L146.93 6.33L146.93 6.33Q147.08 6.59 147.36 6.80L147.36 6.80L147.36 6.80Q147.64 7 148.01 7.17L148.01 7.17L148.01 7.17Q148.39 7.34 148.83 7.50L148.83 7.50L148.83 7.50Q149.46 7.76 149.99 8.01L149.99 8.01L149.99 8.01Q150.51 8.26 150.90 8.61L150.90 8.61L150.90 8.61Q151.28 8.96 151.49 9.44L151.49 9.44L151.49 9.44Q151.70 9.93 151.70 10.61L151.70 10.61L151.70 10.61Q151.70 11.89 150.77 12.57L150.77 12.57L150.77 12.57Q149.84 13.26 148.15 13.26L148.15 13.26L148.15 13.26Q147.57 13.26 147.09 13.18L147.09 13.18L147.09 13.18Q146.61 13.10 146.23 13.00L146.23 13.00L146.23 13.00Q145.85 12.89 145.58 12.78L145.58 12.78L145.58 12.78Q145.31 12.66 145.15 12.57L145.15 12.57L145.56 11.45L145.56 11.45Q145.88 11.63 146.54 11.86L146.54 11.86L146.54 11.86Q147.20 12.08 148.15 12.08Z"></path></g><!----><g data-v-423bf9ae="" id="d4d04d7b-f1a9-4a99-a291-1a908cd5c74a" transform="matrix(1.1027895609537761,0,0,1.1027895609537761,392.70124397123436,0.27348329131199733)" stroke="none" fill="white"><path d="M59.377 9.913V0H42.584v35.994h16.793v-9.012C70.544 30.92 78.549 41.56 78.549 54.075a28.578 28.578 0 0 1-5.755 17.244l11.707 11.709A44.993 44.993 0 0 0 95 54.075c0-21.674-15.262-39.778-35.623-44.162z"></path><path d="M65.987 77.821A28.595 28.595 0 0 1 49.822 82.8c-15.865 0-28.726-12.86-28.726-28.725 0-9.658 4.771-18.196 12.08-23.402V12.075c-16.711 6.628-28.531 22.929-28.531 42 0 24.95 20.226 45.176 45.177 45.176a44.981 44.981 0 0 0 27.931-9.667L65.987 77.821z"></path></g><!----><g data-v-423bf9ae="" id="ba4ef6c7-2c65-425d-abb6-54d8cf3ef652" fill="white" transform="matrix(4.263376307317095,0,0,4.263376307317095,110.58083394502177,191.25861023150873)"><path d="M0.94 9.74L0.56 9.90C1.19 11.77 2.24 12.71 3.71 12.71C4.62 12.71 5.32 12.45 5.78 11.93C6.25 11.41 6.48 10.77 6.48 10.01C6.48 9.66 6.42 9.35 6.31 9.06C6.19 8.78 6.06 8.55 5.92 8.37C5.77 8.19 5.57 8.02 5.31 7.86C5.04 7.70 4.83 7.58 4.67 7.50C4.51 7.43 4.28 7.34 4.00 7.22C3.97 7.21 3.85 7.16 3.65 7.08C3.46 7.01 3.34 6.96 3.29 6.94C3.24 6.91 3.14 6.87 2.97 6.80C2.80 6.73 2.69 6.67 2.64 6.64C2.59 6.60 2.50 6.54 2.37 6.45C2.24 6.37 2.15 6.30 2.10 6.24C2.05 6.18 1.99 6.10 1.90 6.00C1.82 5.90 1.76 5.80 1.73 5.70C1.70 5.61 1.67 5.50 1.64 5.38C1.61 5.25 1.60 5.12 1.60 4.98C1.60 4.41 1.79 3.95 2.19 3.62C2.59 3.29 3.08 3.12 3.67 3.12C4.80 3.12 5.58 3.77 6.02 5.07L6.43 4.90C6.22 4.23 5.88 3.69 5.42 3.29C4.95 2.89 4.37 2.69 3.68 2.69C2.99 2.69 2.39 2.90 1.88 3.33C1.37 3.76 1.12 4.33 1.12 5.04C1.12 5.39 1.19 5.71 1.34 5.99C1.48 6.27 1.70 6.51 1.98 6.71C2.27 6.91 2.52 7.07 2.75 7.17C2.98 7.28 3.28 7.41 3.64 7.55C3.92 7.65 4.11 7.72 4.21 7.77C4.32 7.82 4.49 7.90 4.73 8.02C4.97 8.13 5.15 8.24 5.26 8.34C5.36 8.45 5.49 8.58 5.63 8.75C5.78 8.92 5.88 9.11 5.94 9.32C5.99 9.54 6.02 9.78 6.02 10.05C6.02 10.72 5.83 11.27 5.45 11.68C5.08 12.09 4.51 12.29 3.75 12.29C2.52 12.29 1.58 11.44 0.94 9.74ZM14.46 6.16L16.91 13.05L18.94 6.93L20.97 13.05L23.42 6.16L22.96 6.16L20.99 11.90L18.94 5.81L16.90 11.90L14.92 6.16ZM31.82 3.15C31.82 3.26 31.86 3.36 31.93 3.43C32.00 3.50 32.09 3.54 32.21 3.54C32.34 3.54 32.43 3.50 32.50 3.43C32.57 3.36 32.61 3.26 32.61 3.15C32.61 3.04 32.57 2.94 32.50 2.87C32.43 2.80 32.34 2.76 32.21 2.76C32.09 2.76 32.00 2.80 31.93 2.87C31.86 2.94 31.82 3.04 31.82 3.15ZM32.00 6.16L32.00 12.60L32.42 12.60L32.42 6.16ZM41.78 10.50L41.36 10.58C41.47 11.16 41.72 11.66 42.12 12.08C42.52 12.50 43.02 12.71 43.64 12.71C44.21 12.71 44.67 12.56 45.04 12.24C45.40 11.93 45.58 11.50 45.58 10.96C45.58 9.99 45.00 9.34 43.82 9.00C43.31 8.85 42.91 8.68 42.63 8.47C42.35 8.26 42.21 7.98 42.21 7.63C42.21 7.28 42.34 7.00 42.59 6.79C42.85 6.58 43.20 6.48 43.64 6.48C44.35 6.48 44.87 6.86 45.19 7.63L45.57 7.45C45.24 6.51 44.59 6.05 43.62 6.05C43.09 6.05 42.64 6.19 42.28 6.47C41.92 6.75 41.73 7.14 41.73 7.64C41.73 7.90 41.78 8.12 41.87 8.31C41.97 8.50 42.11 8.66 42.31 8.80C42.52 8.93 42.71 9.04 42.89 9.12C43.07 9.20 43.32 9.29 43.62 9.39C44.14 9.57 44.52 9.78 44.76 10.01C45.00 10.24 45.12 10.57 45.12 11.00C45.12 11.38 44.99 11.68 44.73 11.92C44.47 12.16 44.10 12.28 43.62 12.28C43.10 12.28 42.68 12.09 42.36 11.71C42.03 11.33 41.84 10.93 41.78 10.50ZM54.12 10.50L53.70 10.58C53.82 11.16 54.07 11.66 54.47 12.08C54.86 12.50 55.37 12.71 55.99 12.71C56.56 12.71 57.02 12.56 57.39 12.24C57.75 11.93 57.93 11.50 57.93 10.96C57.93 9.99 57.34 9.34 56.17 9.00C55.65 8.85 55.26 8.68 54.98 8.47C54.70 8.26 54.56 7.98 54.56 7.63C54.56 7.28 54.69 7.00 54.94 6.79C55.20 6.58 55.55 6.48 55.99 6.48C56.70 6.48 57.21 6.86 57.54 7.63L57.92 7.45C57.59 6.51 56.94 6.05 55.97 6.05C55.44 6.05 54.99 6.19 54.63 6.47C54.26 6.75 54.08 7.14 54.08 7.64C54.08 7.90 54.13 8.12 54.22 8.31C54.32 8.50 54.46 8.66 54.66 8.80C54.86 8.93 55.05 9.04 55.24 9.12C55.42 9.20 55.66 9.29 55.97 9.39C56.49 9.57 56.86 9.78 57.11 10.01C57.35 10.24 57.47 10.57 57.47 11.00C57.47 11.38 57.34 11.68 57.08 11.92C56.82 12.16 56.45 12.28 55.97 12.28C55.45 12.28 55.03 12.09 54.70 11.71C54.38 11.33 54.19 10.93 54.12 10.50ZM77.39 7.70C77.39 9.16 77.84 10.36 78.73 11.30C79.62 12.24 80.75 12.71 82.11 12.71C83.34 12.71 84.40 12.31 85.27 11.51L86.44 12.60L87.00 12.60L85.54 11.24C86.40 10.29 86.83 9.11 86.83 7.70C86.83 6.24 86.38 5.04 85.49 4.10C84.60 3.16 83.47 2.69 82.11 2.69C80.75 2.69 79.62 3.16 78.73 4.10C77.84 5.04 77.39 6.24 77.39 7.70ZM81.96 8.40L84.97 11.21C84.18 11.94 83.23 12.31 82.11 12.31C80.87 12.31 79.84 11.87 79.03 10.99C78.22 10.11 77.81 9.02 77.81 7.70C77.81 6.38 78.22 5.29 79.03 4.41C79.84 3.53 80.87 3.09 82.11 3.09C83.35 3.09 84.38 3.53 85.19 4.41C86.00 5.29 86.41 6.38 86.41 7.70C86.41 8.99 86.02 10.07 85.23 10.95L82.52 8.40ZM99.81 10.08C99.81 10.64 99.60 11.15 99.20 11.61C98.79 12.06 98.28 12.29 97.68 12.29C96.62 12.29 96.10 11.60 96.10 10.22L96.10 6.16L95.68 6.16L95.68 10.36C95.68 11.08 95.83 11.65 96.15 12.07C96.47 12.50 96.93 12.71 97.54 12.71C98.13 12.71 98.61 12.57 98.99 12.30C99.38 12.02 99.65 11.64 99.81 11.14L99.81 12.60L100.23 12.60L100.23 6.16L99.81 6.16ZM109.44 7.32C109.81 7.03 110.16 6.81 110.48 6.66C110.80 6.51 111.20 6.44 111.68 6.44C112.82 6.44 113.39 6.95 113.39 7.98L113.39 9.13C112.89 8.82 112.27 8.67 111.51 8.67C110.82 8.67 110.22 8.85 109.72 9.21C109.23 9.56 108.98 10.07 108.98 10.71C108.98 11.39 109.19 11.90 109.61 12.24C110.03 12.57 110.53 12.74 111.12 12.74C111.72 12.74 112.21 12.61 112.61 12.35C113.01 12.09 113.26 11.74 113.39 11.31L113.39 12.60L113.81 12.60L113.81 7.98C113.81 7.34 113.64 6.85 113.30 6.52C112.97 6.19 112.42 6.02 111.68 6.02C111.31 6.02 110.97 6.07 110.63 6.18C110.30 6.29 110.05 6.40 109.88 6.50C109.71 6.61 109.48 6.76 109.21 6.96ZM109.41 10.71C109.41 10.20 109.61 9.79 110.00 9.50C110.40 9.21 110.90 9.06 111.51 9.06C112.18 9.06 112.81 9.23 113.39 9.56L113.39 10.36C113.39 10.94 113.17 11.41 112.73 11.79C112.29 12.16 111.78 12.35 111.19 12.35C110.63 12.35 110.19 12.21 109.88 11.93C109.57 11.65 109.41 11.24 109.41 10.71ZM122.98 1.68L122.98 12.60L123.40 12.60L123.40 1.68ZM132.78 3.15C132.78 3.26 132.81 3.36 132.88 3.43C132.95 3.50 133.05 3.54 133.17 3.54C133.29 3.54 133.39 3.50 133.46 3.43C133.53 3.36 133.56 3.26 133.56 3.15C133.56 3.04 133.53 2.94 133.46 2.87C133.39 2.80 133.29 2.76 133.17 2.76C133.05 2.76 132.95 2.80 132.88 2.87C132.81 2.94 132.78 3.04 132.78 3.15ZM132.96 6.16L132.96 12.60L133.38 12.60L133.38 6.16ZM143.01 3.92L143.01 6.16L141.96 6.16L141.96 6.58L143.01 6.58L143.01 12.60L143.43 12.60L143.43 6.58L144.48 6.58L144.48 6.16L143.43 6.16L143.43 3.92ZM152.11 6.16L154.84 12.32L153.44 15.68L153.93 15.68L157.99 6.16L157.50 6.16L155.09 11.87L152.59 6.16Z"></path></g></svg>